
<svg width="50px" height="56px" viewBox="0 0 50 56" version="1.1" xmlns="http://www.w3.org/2000/svg" xmlns:xlink="http://www.w3.org/1999/xlink">
    <defs>
        <linearGradient x1="50%" y1="0%" x2="50%" y2="98.6829603%" id="linearGradient-1">
            <stop stop-color="#FFFFFF" offset="0%"></stop>
            <stop stop-color="#E8E8E8" offset="100%"></stop>
        </linearGradient>
    </defs>
    <g id="Page-1" stroke="none" stroke-width="1" fill="none" fill-rule="evenodd">
        <g id="Pastie-7-Copy-15" transform="translate(-416.000000, -151.000000)" fill-rule="nonzero">
            <g id="Group-7-Copy" transform="translate(416.000000, 151.000000)">
                <path d="M3.50833954,11.7854398 L21.0424572,1.06926851 C23.3752157,-0.356422837 26.3047843,-0.356422837 28.6375428,1.06926851 L46.1716605,11.7854398 C48.3502557,13.1169126 49.68,15.4930861 49.68,18.0546329 L49.68,37.8328492 C49.68,40.3943959 48.3502557,42.7705694 46.1716605,44.1020422 L28.6375428,54.8182136 C26.3047843,56.2439049 23.3752157,56.2439049 21.0424572,54.8182136 L3.50833954,44.1020422 C1.32974426,42.7705694 -7.28306304e-13,40.3943959 -7.28306304e-13,37.8328492 L-7.28306304e-13,18.0546329 C-7.28306304e-13,15.4930861 1.32974426,13.1169126 3.50833954,11.7854398 Z M5.02735667,14.2931171 C3.7201995,15.0920007 2.92235294,16.5177048 2.92235294,18.0546329 L2.92235294,37.8328492 C2.92235294,39.3697772 3.7201995,40.7954813 5.02735667,41.594365 L22.5614743,52.3105363 C23.9611294,53.1659511 25.7188706,53.1659511 27.1185257,52.3105363 L44.6526433,41.594365 C45.9598005,40.7954813 46.7576471,39.3697772 46.7576471,37.8328492 L46.7576471,18.0546329 C46.7576471,16.5177048 45.9598005,15.0920007 44.6526433,14.2931171 L27.1185257,3.57694572 C25.7188706,2.72153091 23.9611294,2.72153091 22.5614743,3.57694572 L5.02735667,14.2931171 Z" id="Line" fill="url(#linearGradient-1)"></path>
                <path d="M23.3788235,28.4893451 L12.5324514,23.4028636 C11.8012332,23.0599538 11.485213,22.1865575 11.8266005,21.4520786 C12.167988,20.7175996 13.0375068,20.4001701 13.768725,20.74308 L24.8375293,25.9338725 L35.9115015,20.7429738 C36.6427781,20.4001896 37.5122428,20.7177684 37.8535052,21.4523061 C38.1947677,22.1868437 37.8785987,23.0601856 37.1473221,23.4029698 L26.3011765,28.4870754 L26.3011765,39.6852795 C26.3011765,40.4958636 25.6469855,41.1529718 24.84,41.1529718 C24.0330145,41.1529718 23.3788235,40.4958636 23.3788235,39.6852795 L23.3788235,28.4893451 Z" id="Path" fill="#FFFFFF"></path>
            </g>
        </g>
    </g>
</svg>